#!OML:ASF X:\für Bonn\!DataBase\2005_08_10_Bjorn_Final\c3d\bjorn.ASF
:FULLY-SPECIFIED
:DEGREES
373
root 1.05978 18.1548 6.3709 -188.419 30.2005 176.049
lowerback -5.9278 4.41023 2.9159
upperback 8.97961 6.32702 -1.38834
thorax 13.6295 3.59769 -1.96576
lowerneck -1.14905 1.39401 8.62074
upperneck 21.5108 4.63559 -8.67969
head 7.08544 2.86185 -3.92733
rclavicle -2.42269e-014 2.98177e-015
rhumerus 34.2988 28.3869 -72.3397
rradius 72.5235
rwrist 28.9544
rhand -46.9487 9.53301
rfingers 7.12502
rthumb -19.658 -19.4931
lclavicle -2.42269e-014 2.98177e-015
lhumerus 8.63948 -33.7141 70.3863
lradius 64.2747
lwrist -13.9556
lhand -30.723 -17.7838
lfingers 7.12502
lthumb -4.01562 12.1581
rfemur 545.137 -184.93 -530.433
rtibia 34.083
rfoot -28.4809 18.687
rtoes -18.2284
lfemur 343.774 -7.49089 350.281
ltibia 40.5471
lfoot -12.9671 -2.82969
ltoes -28.702
374
root 1.0855 18.1881 6.43342 -188.455 29.9862 176.017
lowerback -5.98652 4.31894 2.92065
upperback 9.07421 6.21109 -1.36923
thorax 13.7674 3.54745 -1.95866
lowerneck -1.25546 1.35806 8.44018
upperneck 21.9784 4.6663 -8.56891
head 7.25355 2.89014 -3.85904
rclavicle -7.36746e-014 3.0911e-014
rhumerus 30.9425 28.8422 -73.9234
rradius 72.2282
rwrist 29.1724
rhand -47.4214 10.0199
rfingers 7.12502
rthumb -20.1123 -18.959
lclavicle -7.36746e-014 3.0911e-014
lhumerus 6.23882 -34.0308 72.1696
lradius 61.8374
lwrist -15.7743
lhand -31.1504 -16.899
lfingers 7.12502
lthumb -4.42834 13.0347
rfemur 545.184 -184.739 -530.307
rtibia 33.8447
rfoot -28.303 18.5754
rtoes -17.9796
lfemur 343.891 -7.61265 350.381
ltibia 39.9778
lfoot -12.3879 -2.88249
ltoes -28.5208
375
root 1.10992 18.2244 6.49714 -188.451 29.7976 175.958
lowerback -6.0781 4.24154 2.91632
upperback 9.15445 6.11499 -1.37208
thorax 13.9128 3.50608 -1.96524
lowerneck -1.44473 1.31218 8.29394
upperneck 22.5581 4.698 -8.47764
head 7.47546 2.92176 -3.80282
rclavicle 2.67862e-014 -1.39149e-014
rhumerus 27.4758 29.0809 -75.6681
rradius 71.7308
rwrist 29.2073
rhand -47.3932 10.4038
rfingers 7.12502
rthumb -20.0853 -18.578
lclavicle 2.67862e-014 -1.39149e-014
lhumerus 3.87073 -33.9816 74.1353
lradius 59.1023
lwrist -17.6927
lhand -31.4999 -15.2896
lfingers 7.12502
lthumb -4.76586 14.6368
rfemur 545.171 -184.537 -530.229
rtibia 33.5794
rfoot -27.9848 18.5739
rtoes -17.5736
lfemur 343.985 -7.80275 350.449
ltibia 39.3538
lfoot -11.7662 -2.80238
ltoes -28.3015
376
root 1.1353 18.2654 6.56235 -188.327 29.5902 175.917
lowerback -6.28207 4.16295 2.8865
upperback 9.21334 6.01294 -1.37723
thorax 14.1008 3.45634 -1.9542
lowerneck -1.73157 1.26756 8.19261
upperneck 23.2154 4.7405 -8.42545
head 7.7451 2.95816 -3.76615
rclavicle -6.44559e-014 1.21259e-014
rhumerus 23.9671 29.0346 -77.5841
rradius 71.03
rwrist 29.306
rhand -46.8765 10.4323
rfingers 7.12502
rthumb -19.5886 -18.6009
lclavicle -6.44559e-014 1.21259e-014
lhumerus 1.53566 -33.5238 76.2475
lradius 56.0859
lwrist -19.2112
lhand -31.6092 -14.2562
lfingers 7.12502
lthumb -4.87143 15.6678
rfemur 545.04 -184.264 -530.155
rtibia 33.2907
rfoot -27.6106 18.5628
rtoes -17.2822
lfemur 343.972 -7.93653 350.557
ltibia 38.6768
lfoot -11.0938 -2.7583
ltoes -28.0835
377
root 1.16075 18.3092 6.6293 -188.158 29.3699 175.862
lowerback -6.50767 4.07169 2.81027
upperback 9.25069 5.89428 -1.37545
thorax 14.2694 3.39149 -1.91376
lowerneck -2.03377 1.23318 8.0574
upperneck 23.8968 4.8058 -8.36478
head 8.02953 3.004 -3.71878
rclavicle 5.63555e-014 -2.78299e-014
rhumerus 20.3951 28.7637 -79.6024
rradius 70.1819
rwrist 29.5498
rhand -46.0348 9.96188
rfingers 7.12502
rthumb -18.7791 -19.1516
lclavicle 5.63555e-014 -2.78299e-014
lhumerus -0.699883 -32.532 78.4195
lradius 52.798
lwrist -20.3458
lhand -30.9276 -13.7201
lfingers 7.12502
lthumb -4.21321 16.218
rfemur 544.85 -183.988 -530.091
rtibia 33.0005
rfoot -27.1451 18.5569
rtoes -16.8992
lfemur 343.896 -7.983 350.662
ltibia 37.9778
lfoot -10.3759 -2.77125
ltoes -27.7407
378
root 1.18649 18.3541 6.69563 -187.981 29.1602 175.777
lowerback -6.68202 3.99934 2.7169
upperback 9.20708 5.79815 -1.4042
thorax 14.3124 3.33318 -1.9025
lowerneck -2.06967 1.15091 7.99305
upperneck 24.4992 4.83979 -8.35549
head 8.2403 3.04935 -3.70541
rclavicle 3.83406e-014 -1.33186e-014
rhumerus 16.5762 28.2261 -81.7982
rradius 69.1451
rwrist 29.569
rhand -44.9621 9.57915
rfingers 7.12502
rthumb -17.7472 -19.631
lclavicle 3.83406e-014 -1.33186e-014
lhumerus -2.96324 -30.9731 80.6669
lradius 49.275
lwrist -21.3374
lhand -29.2655 -13.4252
lfingers 7.12502
lthumb -2.60809 16.5386
rfemur 544.626 -183.679 -530.074
rtibia 32.7168
rfoot -26.6661 18.586
rtoes -16.59
lfemur 343.809 -7.9783 350.743
ltibia 37.271
lfoot -9.65609 -2.77713
ltoes -27.2861
379
root 1.21106 18.3968 6.76439 -187.842 28.9164 175.687
lowerback -6.78353 3.90796 2.61309
upperback 9.17373 5.68325 -1.43904
thorax 14.3199 3.26743 -1.90119
lowerneck -2.15532 1.08075 7.93762
upperneck 25.0999 4.88311 -8.34241
head 8.46277 3.09744 -3.69106
rclavicle 1.16041e-013 -6.10269e-014
rhumerus 12.8427 27.4446 -83.9419
rradius 67.8365
rwrist 29.2057
rhand -43.7616 9.09398
rfingers 7.12502
rthumb -16.5917 -20.2168
lclavicle 1.16041e-013 -6.10269e-014
lhumerus -4.98607 -28.8605 82.7678
lradius 45.494
lwrist -22.1778
lhand -27.376 -12.9648
lfingers 7.12502
lthumb -0.783198 17.0135
rfemur 544.434 -183.339 -530.063
rtibia 32.4497
rfoot -26.1824 18.6469
rtoes -16.2095
lfemur 343.737 -7.89634 350.818
ltibia 36.5658
lfoot -8.87646 -2.884
ltoes -26.7132
